<svg width="1440" height="88" viewBox="0 0 1440 88" fill="none" xmlns="http://www.w3.org/2000/svg">
<mask id="path-1-inside-1_1_954" fill="white">
<path d="M0 0H1440V88H0V0Z"/>
</mask>
<path d="M0 0H1440V88H0V0Z" fill="white"/>
<path d="M1440 87H0V89H1440V87Z" fill="black" fill-opacity="0.2" mask="url(#path-1-inside-1_1_954)"/>
<path d="M172.296 45.1213H162.425V50.3465H173.675V54H158.275V33.6783H173.178V37.2767H162.425V41.5919H172.296V45.1213ZM183.104 43.1085C182.773 42.3824 182.125 42.0193 181.16 42.0193C180.039 42.0193 179.285 42.3824 178.899 43.1085C178.687 43.5221 178.582 44.1379 178.582 44.9559V54H174.597V39H178.416V41.1921C178.903 40.4108 179.363 39.8548 179.795 39.5239C180.558 38.9357 181.546 38.6415 182.759 38.6415C183.908 38.6415 184.836 38.8943 185.544 39.3998C186.114 39.8686 186.546 40.4706 186.84 41.2059C187.355 40.3235 187.994 39.6756 188.756 39.262C189.565 38.8483 190.466 38.6415 191.459 38.6415C192.12 38.6415 192.773 38.7702 193.416 39.0276C194.06 39.2849 194.643 39.7353 195.167 40.3787C195.59 40.9026 195.875 41.546 196.022 42.3088C196.114 42.8143 196.16 43.5542 196.16 44.5285L196.132 54H192.107V44.432C192.107 43.8621 192.015 43.3934 191.831 43.0257C191.482 42.3272 190.838 41.9779 189.901 41.9779C188.816 41.9779 188.067 42.4283 187.653 43.329C187.442 43.807 187.336 44.3814 187.336 45.0524V54H183.38V45.0524C183.38 44.1608 183.288 43.5129 183.104 43.1085ZM205.948 54.3998C204.707 54.3998 203.71 54.1517 202.956 53.6553C202.506 53.3612 202.018 52.8465 201.494 52.1112V54H197.648V33.7059H201.563V40.9301C202.06 40.2316 202.607 39.6985 203.204 39.3309C203.912 38.8713 204.812 38.6415 205.906 38.6415C207.882 38.6415 209.426 39.3539 210.539 40.7785C211.66 42.2031 212.221 44.0414 212.221 46.2932C212.221 48.6278 211.669 50.5625 210.566 52.0974C209.463 53.6324 207.924 54.3998 205.948 54.3998ZM208.098 46.7068C208.098 45.6406 207.96 44.7583 207.685 44.0597C207.161 42.7362 206.196 42.0745 204.79 42.0745C203.365 42.0745 202.386 42.7224 201.853 44.0184C201.577 44.7077 201.439 45.5993 201.439 46.693C201.439 47.9798 201.724 49.046 202.294 49.8915C202.864 50.7371 203.733 51.1599 204.9 51.1599C205.911 51.1599 206.697 50.7509 207.257 49.9329C207.818 49.1149 208.098 48.0395 208.098 46.7068ZM220.602 42.5983C219.021 42.5983 217.96 43.1131 217.417 44.1425C217.114 44.7215 216.962 45.6131 216.962 46.8171V54H213.006V38.9724H216.756V41.5919C217.362 40.5901 217.891 39.9053 218.341 39.5377C219.076 38.9219 220.032 38.614 221.209 38.614C221.282 38.614 221.342 38.6186 221.388 38.6278C221.443 38.6278 221.558 38.6324 221.733 38.6415V42.6673C221.484 42.6397 221.264 42.6213 221.071 42.6121C220.878 42.6029 220.721 42.5983 220.602 42.5983ZM222.614 40.5993C223.653 39.2757 225.436 38.614 227.963 38.614C229.608 38.614 231.07 38.9403 232.347 39.5928C233.625 40.2454 234.264 41.477 234.264 43.2877V50.1811C234.264 50.659 234.273 51.2381 234.291 51.9182C234.319 52.4329 234.397 52.7822 234.526 52.966C234.654 53.1498 234.847 53.3015 235.105 53.421V54H230.831C230.711 53.6967 230.629 53.4118 230.583 53.1452C230.537 52.8787 230.5 52.5754 230.472 52.2353C229.93 52.8235 229.305 53.3244 228.597 53.7381C227.752 54.2252 226.796 54.4687 225.73 54.4687C224.369 54.4687 223.244 54.0827 222.352 53.3107C221.47 52.5294 221.028 51.4265 221.028 50.0018C221.028 48.1544 221.741 46.8171 223.165 45.9899C223.947 45.5395 225.096 45.2178 226.612 45.0248L227.949 44.8594C228.676 44.7675 229.195 44.6526 229.507 44.5147C230.068 44.2757 230.348 43.9035 230.348 43.398C230.348 42.7822 230.132 42.3594 229.7 42.1296C229.278 41.8906 228.653 41.7711 227.825 41.7711C226.897 41.7711 226.24 42.0009 225.854 42.4605C225.578 42.8006 225.394 43.2601 225.302 43.8392H221.511C221.594 42.5248 221.961 41.4449 222.614 40.5993ZM225.537 51.1599C225.904 51.4632 226.355 51.6149 226.888 51.6149C227.733 51.6149 228.51 51.3667 229.218 50.8704C229.935 50.3741 230.307 49.4688 230.335 48.1544V46.693C230.086 46.8493 229.834 46.9779 229.576 47.079C229.328 47.171 228.983 47.2583 228.542 47.341L227.66 47.5064C226.833 47.6535 226.24 47.8327 225.881 48.0441C225.275 48.4026 224.971 48.9586 224.971 49.7123C224.971 50.3833 225.16 50.8658 225.537 51.1599ZM248.767 44.3631H244.741C244.667 43.8024 244.479 43.2969 244.176 42.8465C243.734 42.2399 243.05 41.9366 242.121 41.9366C240.798 41.9366 239.892 42.5938 239.405 43.9081C239.148 44.6066 239.019 45.5349 239.019 46.693C239.019 47.796 239.148 48.6829 239.405 49.3539C239.874 50.6039 240.756 51.2289 242.052 51.2289C242.971 51.2289 243.624 50.9807 244.01 50.4844C244.396 49.9881 244.631 49.3447 244.713 48.5542H248.725C248.633 49.7491 248.201 50.8796 247.429 51.9458C246.198 53.6645 244.373 54.5239 241.956 54.5239C239.539 54.5239 237.76 53.807 236.62 52.3732C235.481 50.9393 234.911 49.0781 234.911 46.7895C234.911 44.2068 235.54 42.1985 236.8 40.7647C238.059 39.3309 239.796 38.614 242.011 38.614C243.895 38.614 245.435 39.0368 246.63 39.8824C247.834 40.7279 248.546 42.2215 248.767 44.3631ZM262.346 49.5882C262.244 50.4798 261.78 51.3851 260.953 52.3042C259.666 53.7656 257.865 54.4963 255.549 54.4963C253.637 54.4963 251.95 53.8805 250.489 52.6489C249.028 51.4173 248.297 49.4136 248.297 46.6379C248.297 44.0368 248.954 42.0423 250.268 40.6544C251.592 39.2665 253.306 38.5726 255.411 38.5726C256.661 38.5726 257.787 38.807 258.789 39.2757C259.79 39.7445 260.618 40.4844 261.27 41.4954C261.858 42.387 262.24 43.421 262.415 44.5974C262.516 45.2868 262.557 46.2794 262.539 47.5754H252.254C252.309 49.0827 252.782 50.1397 253.674 50.7463C254.216 51.1232 254.869 51.3116 255.631 51.3116C256.44 51.3116 257.097 51.0818 257.603 50.6222C257.879 50.3741 258.122 50.0294 258.334 49.5882H262.346ZM258.458 44.9835C258.393 43.9449 258.076 43.159 257.506 42.6259C256.946 42.0836 256.247 41.8125 255.411 41.8125C254.501 41.8125 253.793 42.0974 253.288 42.6673C252.791 43.2371 252.479 44.0092 252.35 44.9835H258.458Z" fill="black"/>
<circle cx="129.5" cy="44.5" r="9.5" fill="#3461FF"/>
<path d="M154.519 43.6362C155.181 44.0221 155.181 44.9779 154.519 45.3638L139.504 54.1227C138.837 54.5116 138 54.0308 138 53.259L138 35.741C138 34.9692 138.837 34.4884 139.504 34.8773L147 39.25L154.519 43.6362Z" fill="#3461FF"/>
<path d="M524.008 50H522.248V38.512H524.008V43.312H529.832V38.512H531.592V50H529.832V44.848H524.008V50ZM537.516 50.16C536.918 50.16 536.364 50.0533 535.852 49.84C535.35 49.616 534.913 49.3067 534.54 48.912C534.166 48.5067 533.873 48.0373 533.66 47.504C533.457 46.9707 533.356 46.3893 533.356 45.76C533.356 45.1307 533.457 44.5493 533.66 44.016C533.873 43.4827 534.166 43.0187 534.54 42.624C534.913 42.2187 535.35 41.9093 535.852 41.696C536.364 41.472 536.918 41.36 537.516 41.36C538.124 41.36 538.678 41.472 539.18 41.696C539.692 41.9093 540.129 42.2187 540.492 42.624C540.865 43.0187 541.153 43.4827 541.356 44.016C541.569 44.5493 541.676 45.1307 541.676 45.76C541.676 46.3893 541.569 46.9707 541.356 47.504C541.153 48.0373 540.865 48.5067 540.492 48.912C540.129 49.3067 539.692 49.616 539.18 49.84C538.678 50.0533 538.124 50.16 537.516 50.16ZM537.516 48.736C537.985 48.736 538.406 48.6187 538.78 48.384C539.164 48.1387 539.462 47.792 539.676 47.344C539.9 46.896 540.012 46.368 540.012 45.76C540.012 45.1413 539.9 44.6133 539.676 44.176C539.462 43.728 539.164 43.3867 538.78 43.152C538.406 42.9173 537.985 42.8 537.516 42.8C537.057 42.8 536.636 42.9173 536.252 43.152C535.878 43.3867 535.58 43.728 535.356 44.176C535.142 44.6133 535.036 45.1413 535.036 45.76C535.036 46.368 535.142 46.896 535.356 47.344C535.58 47.792 535.878 48.1387 536.252 48.384C536.636 48.6187 537.057 48.736 537.516 48.736ZM550.144 50L548.224 43.696L546.288 50H544.656L542.208 41.52H543.792L545.504 47.696L547.424 41.52H549.024L550.912 47.712L552.624 41.52H554.224L551.76 50H550.144ZM560.774 50H559.014V38.512H560.774V50ZM567.92 48.432V49.856C567.674 49.9733 567.434 50.0533 567.2 50.096C566.976 50.1387 566.736 50.16 566.48 50.16C565.957 50.16 565.493 50.064 565.088 49.872C564.693 49.68 564.384 49.3813 564.16 48.976C563.936 48.5707 563.824 48.0587 563.824 47.44V42.896H561.952V41.52H563.824V39.008H565.44V41.52H568V42.896H565.44V47.072C565.44 47.6587 565.568 48.0693 565.824 48.304C566.09 48.5387 566.437 48.656 566.864 48.656C567.056 48.656 567.237 48.64 567.408 48.608C567.589 48.5653 567.76 48.5067 567.92 48.432ZM581.766 50L579.334 40.992L576.886 50H575.078L572.086 38.512H573.814L576.022 47.36L578.438 38.512H580.262L582.646 47.376L584.854 38.512H586.582L583.59 50H581.766ZM590.86 50.16C590.262 50.16 589.708 50.0533 589.196 49.84C588.694 49.616 588.257 49.3067 587.884 48.912C587.51 48.5067 587.217 48.0373 587.004 47.504C586.801 46.9707 586.7 46.3893 586.7 45.76C586.7 45.1307 586.801 44.5493 587.004 44.016C587.217 43.4827 587.51 43.0187 587.884 42.624C588.257 42.2187 588.694 41.9093 589.196 41.696C589.708 41.472 590.262 41.36 590.86 41.36C591.468 41.36 592.022 41.472 592.524 41.696C593.036 41.9093 593.473 42.2187 593.836 42.624C594.209 43.0187 594.497 43.4827 594.7 44.016C594.913 44.5493 595.02 45.1307 595.02 45.76C595.02 46.3893 594.913 46.9707 594.7 47.504C594.497 48.0373 594.209 48.5067 593.836 48.912C593.473 49.3067 593.036 49.616 592.524 49.84C592.022 50.0533 591.468 50.16 590.86 50.16ZM590.86 48.736C591.329 48.736 591.75 48.6187 592.124 48.384C592.508 48.1387 592.806 47.792 593.02 47.344C593.244 46.896 593.356 46.368 593.356 45.76C593.356 45.1413 593.244 44.6133 593.02 44.176C592.806 43.728 592.508 43.3867 592.124 43.152C591.75 42.9173 591.329 42.8 590.86 42.8C590.401 42.8 589.98 42.9173 589.596 43.152C589.222 43.3867 588.924 43.728 588.7 44.176C588.486 44.6133 588.38 45.1413 588.38 45.76C588.38 46.368 588.486 46.896 588.7 47.344C588.924 47.792 589.222 48.1387 589.596 48.384C589.98 48.6187 590.401 48.736 590.86 48.736ZM598.283 45.664V50H596.667V41.52H598.171V43.312C598.47 42.7253 598.912 42.2613 599.499 41.92C600.096 41.5787 600.742 41.408 601.435 41.408V43.088C600.827 43.056 600.283 43.1253 599.803 43.296C599.334 43.4667 598.96 43.7493 598.683 44.144C598.416 44.528 598.283 45.0347 598.283 45.664ZM604.33 50H602.714V38.512H604.33V45.312L607.962 41.52H609.866L605.946 45.632L610.234 50H608.154L604.33 45.984V50ZM617.778 47.472C617.778 48.304 617.468 48.96 616.85 49.44C616.231 49.92 615.356 50.16 614.226 50.16C613.116 50.16 612.236 49.8987 611.586 49.376C610.946 48.8533 610.583 48.1387 610.498 47.232H612.049C612.071 47.7653 612.279 48.1867 612.674 48.496C613.079 48.7947 613.607 48.944 614.258 48.944C614.823 48.944 615.276 48.8427 615.618 48.64C615.97 48.4373 616.146 48.1387 616.146 47.744C616.146 47.392 616.028 47.1253 615.794 46.944C615.57 46.7627 615.191 46.624 614.658 46.528L613.282 46.272C612.503 46.1227 611.9 45.8507 611.474 45.456C611.047 45.0507 610.834 44.528 610.834 43.888C610.834 43.3867 610.967 42.9493 611.234 42.576C611.511 42.192 611.895 41.8933 612.386 41.68C612.876 41.4667 613.447 41.36 614.098 41.36C614.78 41.36 615.378 41.4773 615.89 41.712C616.402 41.936 616.812 42.2613 617.122 42.688C617.431 43.104 617.607 43.6053 617.65 44.192H616.098C616.044 43.6907 615.842 43.296 615.49 43.008C615.138 42.72 614.679 42.576 614.114 42.576C613.602 42.576 613.186 42.6827 612.866 42.896C612.556 43.0987 612.402 43.3813 612.402 43.744C612.402 44.0853 612.514 44.3467 612.738 44.528C612.972 44.6987 613.346 44.8373 613.858 44.944L615.298 45.216C616.14 45.3653 616.764 45.6267 617.17 46C617.575 46.3733 617.778 46.864 617.778 47.472Z" fill="black"/>
<path d="M665.416 50.24C664.584 50.24 663.811 50.0907 663.096 49.792C662.392 49.4827 661.773 49.056 661.24 48.512C660.717 47.968 660.307 47.3333 660.008 46.608C659.72 45.872 659.576 45.0827 659.576 44.24C659.576 43.3973 659.72 42.6133 660.008 41.888C660.307 41.1627 660.717 40.5333 661.24 40C661.773 39.456 662.392 39.0347 663.096 38.736C663.811 38.4267 664.584 38.272 665.416 38.272C666.248 38.272 667.016 38.4267 667.72 38.736C668.435 39.0347 669.053 39.456 669.576 40C670.109 40.5333 670.52 41.1627 670.808 41.888C671.107 42.6133 671.256 43.3973 671.256 44.24C671.256 45.0827 671.107 45.872 670.808 46.608C670.52 47.3333 670.109 47.968 669.576 48.512C669.053 49.056 668.435 49.4827 667.72 49.792C667.016 50.0907 666.248 50.24 665.416 50.24ZM665.416 48.656C666.024 48.656 666.573 48.544 667.064 48.32C667.555 48.096 667.976 47.7813 668.328 47.376C668.691 46.9707 668.963 46.5013 669.144 45.968C669.336 45.424 669.432 44.848 669.432 44.24C669.432 43.632 669.336 43.0613 669.144 42.528C668.963 41.9947 668.691 41.5307 668.328 41.136C667.976 40.7307 667.555 40.416 667.064 40.192C666.573 39.968 666.024 39.856 665.416 39.856C664.808 39.856 664.259 39.968 663.768 40.192C663.277 40.416 662.851 40.7307 662.488 41.136C662.136 41.5307 661.864 41.9947 661.672 42.528C661.491 43.0613 661.4 43.632 661.4 44.24C661.4 44.848 661.491 45.424 661.672 45.968C661.864 46.5013 662.136 46.9707 662.488 47.376C662.851 47.7813 663.277 48.096 663.768 48.32C664.259 48.544 664.808 48.656 665.416 48.656ZM678.244 46.512V41.52H679.86V50H678.356V48.672C678.143 49.0987 677.801 49.456 677.332 49.744C676.863 50.0213 676.34 50.16 675.764 50.16C675.199 50.16 674.692 50.048 674.244 49.824C673.807 49.6 673.465 49.2533 673.22 48.784C672.985 48.304 672.868 47.7013 672.868 46.976V41.52H674.484V46.656C674.484 47.392 674.649 47.9253 674.98 48.256C675.311 48.576 675.743 48.736 676.276 48.736C676.639 48.736 676.969 48.6453 677.268 48.464C677.567 48.272 677.801 48.0107 677.972 47.68C678.153 47.3387 678.244 46.9493 678.244 46.512ZM683.72 45.664V50H682.104V41.52H683.608V43.312C683.907 42.7253 684.35 42.2613 684.936 41.92C685.534 41.5787 686.179 41.408 686.872 41.408V43.088C686.264 43.056 685.72 43.1253 685.24 43.296C684.771 43.4667 684.398 43.7493 684.12 44.144C683.854 44.528 683.72 45.0347 683.72 45.664ZM700.375 50L697.943 40.992L695.495 50H693.687L690.695 38.512H692.423L694.631 47.36L697.047 38.512H698.871L701.255 47.376L703.463 38.512H705.191L702.199 50H700.375ZM709.469 50.16C708.872 50.16 708.317 50.0533 707.805 49.84C707.304 49.616 706.866 49.3067 706.493 48.912C706.12 48.5067 705.826 48.0373 705.613 47.504C705.41 46.9707 705.309 46.3893 705.309 45.76C705.309 45.1307 705.41 44.5493 705.613 44.016C705.826 43.4827 706.12 43.0187 706.493 42.624C706.866 42.2187 707.304 41.9093 707.805 41.696C708.317 41.472 708.872 41.36 709.469 41.36C710.077 41.36 710.632 41.472 711.133 41.696C711.645 41.9093 712.082 42.2187 712.445 42.624C712.818 43.0187 713.106 43.4827 713.309 44.016C713.522 44.5493 713.629 45.1307 713.629 45.76C713.629 46.3893 713.522 46.9707 713.309 47.504C713.106 48.0373 712.818 48.5067 712.445 48.912C712.082 49.3067 711.645 49.616 711.133 49.84C710.632 50.0533 710.077 50.16 709.469 50.16ZM709.469 48.736C709.938 48.736 710.36 48.6187 710.733 48.384C711.117 48.1387 711.416 47.792 711.629 47.344C711.853 46.896 711.965 46.368 711.965 45.76C711.965 45.1413 711.853 44.6133 711.629 44.176C711.416 43.728 711.117 43.3867 710.733 43.152C710.36 42.9173 709.938 42.8 709.469 42.8C709.01 42.8 708.589 42.9173 708.205 43.152C707.832 43.3867 707.533 43.728 707.309 44.176C707.096 44.6133 706.989 45.1413 706.989 45.76C706.989 46.368 707.096 46.896 707.309 47.344C707.533 47.792 707.832 48.1387 708.205 48.384C708.589 48.6187 709.01 48.736 709.469 48.736ZM716.892 45.664V50H715.276V41.52H716.78V43.312C717.079 42.7253 717.522 42.2613 718.108 41.92C718.706 41.5787 719.351 41.408 720.044 41.408V43.088C719.436 43.056 718.892 43.1253 718.412 43.296C717.943 43.4667 717.57 43.7493 717.292 44.144C717.026 44.528 716.892 45.0347 716.892 45.664ZM722.939 50H721.323V38.512H722.939V45.312L726.571 41.52H728.475L724.555 45.632L728.843 50H726.763L722.939 45.984V50Z" fill="black"/>
<path d="M774.232 46H772.008V50H770.248V38.512H774.232C775.085 38.512 775.827 38.656 776.456 38.944C777.096 39.2213 777.592 39.6373 777.944 40.192C778.296 40.736 778.472 41.4133 778.472 42.224C778.472 43.024 778.296 43.7067 777.944 44.272C777.592 44.8267 777.096 45.2533 776.456 45.552C775.827 45.8507 775.085 46 774.232 46ZM774.216 40H772.008V44.512H774.216C774.995 44.512 775.603 44.3093 776.04 43.904C776.488 43.4987 776.712 42.944 776.712 42.24C776.712 41.5253 776.488 40.976 776.04 40.592C775.603 40.1973 774.995 40 774.216 40ZM781.72 45.664V50H780.104V41.52H781.608V43.312C781.907 42.7253 782.35 42.2613 782.936 41.92C783.534 41.5787 784.179 41.408 784.872 41.408V43.088C784.264 43.056 783.72 43.1253 783.24 43.296C782.771 43.4667 782.398 43.7493 782.12 44.144C781.854 44.528 781.72 45.0347 781.72 45.664ZM787.767 50H786.151V41.52H787.767V50ZM788.119 39.552C788.119 39.8507 788.007 40.1067 787.783 40.32C787.57 40.5227 787.293 40.624 786.951 40.624C786.599 40.624 786.311 40.5227 786.087 40.32C785.874 40.1067 785.767 39.8507 785.767 39.552C785.767 39.232 785.874 38.976 786.087 38.784C786.311 38.5813 786.599 38.48 786.951 38.48C787.293 38.48 787.57 38.5813 787.783 38.784C788.007 38.976 788.119 39.232 788.119 39.552ZM793.355 50.176C792.576 50.176 791.888 49.9893 791.291 49.616C790.704 49.2427 790.24 48.7253 789.899 48.064C789.568 47.392 789.403 46.624 789.403 45.76C789.403 44.9067 789.573 44.1493 789.915 43.488C790.256 42.8267 790.725 42.3093 791.323 41.936C791.92 41.552 792.597 41.36 793.355 41.36C794.059 41.36 794.683 41.5093 795.227 41.808C795.781 42.096 796.235 42.512 796.587 43.056C796.949 43.5893 797.179 44.224 797.275 44.96H795.579C795.493 44.2773 795.253 43.744 794.859 43.36C794.464 42.976 793.968 42.784 793.371 42.784C792.901 42.784 792.496 42.912 792.155 43.168C791.813 43.4133 791.547 43.7547 791.355 44.192C791.163 44.6293 791.067 45.152 791.067 45.76C791.067 46.3573 791.163 46.88 791.355 47.328C791.547 47.776 791.813 48.1227 792.155 48.368C792.496 48.6133 792.901 48.736 793.371 48.736C793.979 48.736 794.475 48.544 794.859 48.16C795.253 47.776 795.499 47.2427 795.595 46.56H797.275C797.189 47.3067 796.971 47.952 796.619 48.496C796.267 49.0293 795.813 49.4453 795.259 49.744C794.704 50.032 794.069 50.176 793.355 50.176ZM800.517 50H798.901V41.52H800.517V50ZM800.869 39.552C800.869 39.8507 800.757 40.1067 800.533 40.32C800.32 40.5227 800.043 40.624 799.701 40.624C799.349 40.624 799.061 40.5227 798.837 40.32C798.624 40.1067 798.517 39.8507 798.517 39.552C798.517 39.232 798.624 38.976 798.837 38.784C799.061 38.5813 799.349 38.48 799.701 38.48C800.043 38.48 800.32 38.5813 800.533 38.784C800.757 38.976 800.869 39.232 800.869 39.552ZM804.377 45.216V50H802.761V41.52H804.265V42.928C804.553 42.4587 804.926 42.08 805.385 41.792C805.854 41.504 806.382 41.36 806.969 41.36C807.843 41.36 808.542 41.632 809.065 42.176C809.598 42.72 809.865 43.4987 809.865 44.512V50H808.249V45.056C808.249 44.3307 808.094 43.7707 807.785 43.376C807.475 42.9813 807.017 42.784 806.409 42.784C806.035 42.784 805.694 42.8853 805.385 43.088C805.075 43.28 804.83 43.5573 804.649 43.92C804.467 44.2827 804.377 44.7147 804.377 45.216ZM815.403 53.264C814.667 53.264 814.021 53.136 813.467 52.88C812.912 52.6347 812.475 52.2773 812.155 51.808C811.845 51.3387 811.675 50.7893 811.643 50.16H813.211C813.264 50.7467 813.472 51.1947 813.835 51.504C814.208 51.824 814.725 51.984 815.387 51.984C816.123 51.984 816.677 51.792 817.051 51.408C817.424 51.0347 817.611 50.48 817.611 49.744V48.208C817.365 48.7093 817.013 49.104 816.555 49.392C816.107 49.68 815.595 49.824 815.019 49.824C814.315 49.824 813.691 49.6427 813.147 49.28C812.603 48.9173 812.176 48.416 811.867 47.776C811.557 47.136 811.403 46.4053 811.403 45.584C811.403 44.7413 811.552 44.0053 811.851 43.376C812.149 42.736 812.565 42.24 813.099 41.888C813.643 41.536 814.267 41.36 814.971 41.36C815.579 41.36 816.117 41.504 816.587 41.792C817.056 42.08 817.435 42.4907 817.723 43.024V41.52H819.227V49.712C819.227 50.832 818.891 51.7013 818.219 52.32C817.547 52.9493 816.608 53.264 815.403 53.264ZM813.035 45.584C813.035 46.4587 813.237 47.152 813.643 47.664C814.048 48.1653 814.603 48.416 815.307 48.416C815.765 48.416 816.165 48.304 816.507 48.08C816.859 47.8453 817.131 47.52 817.323 47.104C817.515 46.6773 817.611 46.1867 817.611 45.632C817.611 44.7573 817.403 44.0587 816.987 43.536C816.571 43.0133 816.011 42.752 815.307 42.752C814.613 42.752 814.059 43.008 813.643 43.52C813.237 44.0213 813.035 44.7093 813.035 45.584Z" fill="black"/>
<path d="M864.008 45.728H869.352L869.832 47.152H863.416L864.008 45.728ZM870.152 50L866.648 40.432L863.096 50H861.32L865.72 38.512H867.656L872.024 50H870.152ZM881.575 45.76C881.575 46.6027 881.421 47.36 881.111 48.032C880.802 48.6933 880.365 49.216 879.799 49.6C879.245 49.9733 878.583 50.16 877.815 50.16C877.218 50.16 876.674 50.016 876.183 49.728C875.693 49.4293 875.293 49.0133 874.983 48.48V50H873.479V38.512H875.095V42.976C875.394 42.4533 875.778 42.0533 876.247 41.776C876.717 41.4987 877.239 41.36 877.815 41.36C878.583 41.36 879.245 41.5467 879.799 41.92C880.354 42.2933 880.786 42.816 881.095 43.488C881.415 44.1493 881.575 44.9067 881.575 45.76ZM879.895 45.76C879.895 44.8 879.666 44.064 879.207 43.552C878.759 43.04 878.189 42.784 877.495 42.784C877.047 42.784 876.642 42.9013 876.279 43.136C875.917 43.36 875.629 43.6907 875.415 44.128C875.202 44.5653 875.095 45.0987 875.095 45.728C875.095 46.3467 875.197 46.88 875.399 47.328C875.613 47.776 875.901 48.1227 876.263 48.368C876.626 48.6027 877.037 48.72 877.495 48.72C878.189 48.72 878.759 48.464 879.207 47.952C879.666 47.44 879.895 46.7093 879.895 45.76ZM886.766 50.16C886.168 50.16 885.614 50.0533 885.102 49.84C884.6 49.616 884.163 49.3067 883.79 48.912C883.416 48.5067 883.123 48.0373 882.91 47.504C882.707 46.9707 882.606 46.3893 882.606 45.76C882.606 45.1307 882.707 44.5493 882.91 44.016C883.123 43.4827 883.416 43.0187 883.79 42.624C884.163 42.2187 884.6 41.9093 885.102 41.696C885.614 41.472 886.168 41.36 886.766 41.36C887.374 41.36 887.928 41.472 888.43 41.696C888.942 41.9093 889.379 42.2187 889.742 42.624C890.115 43.0187 890.403 43.4827 890.606 44.016C890.819 44.5493 890.926 45.1307 890.926 45.76C890.926 46.3893 890.819 46.9707 890.606 47.504C890.403 48.0373 890.115 48.5067 889.742 48.912C889.379 49.3067 888.942 49.616 888.43 49.84C887.928 50.0533 887.374 50.16 886.766 50.16ZM886.766 48.736C887.235 48.736 887.656 48.6187 888.03 48.384C888.414 48.1387 888.712 47.792 888.926 47.344C889.15 46.896 889.262 46.368 889.262 45.76C889.262 45.1413 889.15 44.6133 888.926 44.176C888.712 43.728 888.414 43.3867 888.03 43.152C887.656 42.9173 887.235 42.8 886.766 42.8C886.307 42.8 885.886 42.9173 885.502 43.152C885.128 43.3867 884.83 43.728 884.606 44.176C884.392 44.6133 884.286 45.1413 884.286 45.76C884.286 46.368 884.392 46.896 884.606 47.344C884.83 47.792 885.128 48.1387 885.502 48.384C885.886 48.6187 886.307 48.736 886.766 48.736ZM897.869 46.512V41.52H899.485V50H897.981V48.672C897.768 49.0987 897.426 49.456 896.957 49.744C896.488 50.0213 895.965 50.16 895.389 50.16C894.824 50.16 894.317 50.048 893.869 49.824C893.432 49.6 893.09 49.2533 892.845 48.784C892.61 48.304 892.493 47.7013 892.493 46.976V41.52H894.109V46.656C894.109 47.392 894.274 47.9253 894.605 48.256C894.936 48.576 895.368 48.736 895.901 48.736C896.264 48.736 896.594 48.6453 896.893 48.464C897.192 48.272 897.426 48.0107 897.597 47.68C897.778 47.3387 897.869 46.9493 897.869 46.512ZM906.513 48.432V49.856C906.268 49.9733 906.028 50.0533 905.793 50.096C905.569 50.1387 905.329 50.16 905.073 50.16C904.551 50.16 904.087 50.064 903.681 49.872C903.287 49.68 902.977 49.3813 902.753 48.976C902.529 48.5707 902.417 48.0587 902.417 47.44V42.896H900.545V41.52H902.417V39.008H904.033V41.52H906.593V42.896H904.033V47.072C904.033 47.6587 904.161 48.0693 904.417 48.304C904.684 48.5387 905.031 48.656 905.457 48.656C905.649 48.656 905.831 48.64 906.001 48.608C906.183 48.5653 906.353 48.5067 906.513 48.432ZM920.455 38.512V45.872C920.455 46.7467 920.274 47.5147 919.911 48.176C919.559 48.8267 919.053 49.3333 918.391 49.696C917.73 50.0587 916.935 50.24 916.007 50.24C915.09 50.24 914.301 50.0587 913.639 49.696C912.978 49.3333 912.466 48.8267 912.103 48.176C911.751 47.5147 911.575 46.7467 911.575 45.872V38.512H913.335V45.92C913.335 46.4747 913.442 46.96 913.655 47.376C913.869 47.7813 914.173 48.096 914.567 48.32C914.962 48.544 915.442 48.656 916.007 48.656C916.583 48.656 917.069 48.544 917.463 48.32C917.869 48.096 918.173 47.7813 918.375 47.376C918.589 46.96 918.695 46.4747 918.695 45.92V38.512H920.455ZM929.496 47.472C929.496 48.304 929.187 48.96 928.568 49.44C927.95 49.92 927.075 50.16 925.944 50.16C924.835 50.16 923.955 49.8987 923.304 49.376C922.664 48.8533 922.302 48.1387 922.216 47.232H923.768C923.79 47.7653 923.998 48.1867 924.392 48.496C924.798 48.7947 925.326 48.944 925.976 48.944C926.542 48.944 926.995 48.8427 927.336 48.64C927.688 48.4373 927.864 48.1387 927.864 47.744C927.864 47.392 927.747 47.1253 927.512 46.944C927.288 46.7627 926.91 46.624 926.376 46.528L925 46.272C924.222 46.1227 923.619 45.8507 923.192 45.456C922.766 45.0507 922.552 44.528 922.552 43.888C922.552 43.3867 922.686 42.9493 922.952 42.576C923.23 42.192 923.614 41.8933 924.104 41.68C924.595 41.4667 925.166 41.36 925.816 41.36C926.499 41.36 927.096 41.4773 927.608 41.712C928.12 41.936 928.531 42.2613 928.84 42.688C929.15 43.104 929.326 43.6053 929.368 44.192H927.816C927.763 43.6907 927.56 43.296 927.208 43.008C926.856 42.72 926.398 42.576 925.832 42.576C925.32 42.576 924.904 42.6827 924.584 42.896C924.275 43.0987 924.12 43.3813 924.12 43.744C924.12 44.0853 924.232 44.3467 924.456 44.528C924.691 44.6987 925.064 44.8373 925.576 44.944L927.016 45.216C927.859 45.3653 928.483 45.6267 928.888 46C929.294 46.3733 929.496 46.864 929.496 47.472Z" fill="black"/>
<rect x="1188" y="18" width="133" height="52" rx="26" fill="#3461FF"/>
<path d="M1221.38 46.704C1221.38 47.7493 1221.02 48.56 1220.3 49.136C1219.6 49.712 1218.65 50 1217.46 50H1213.25V38.512H1217.23C1218.39 38.512 1219.3 38.7733 1219.95 39.296C1220.61 39.808 1220.94 40.5493 1220.94 41.52C1220.94 42.064 1220.79 42.5547 1220.48 42.992C1220.17 43.4293 1219.74 43.7707 1219.18 44.016C1219.9 44.2187 1220.44 44.5547 1220.82 45.024C1221.19 45.4827 1221.38 46.0427 1221.38 46.704ZM1217.12 39.92H1214.86V43.376H1217.12C1217.81 43.376 1218.34 43.2213 1218.7 42.912C1219.08 42.6027 1219.26 42.1813 1219.26 41.648C1219.26 41.1147 1219.08 40.6933 1218.7 40.384C1218.34 40.0747 1217.81 39.92 1217.12 39.92ZM1217.34 44.784H1214.86V48.592H1217.34C1218.09 48.592 1218.67 48.4213 1219.07 48.08C1219.49 47.7387 1219.7 47.264 1219.7 46.656C1219.7 46.0693 1219.49 45.6107 1219.07 45.28C1218.67 44.9493 1218.09 44.784 1217.34 44.784ZM1226.83 50.16C1226.23 50.16 1225.68 50.0533 1225.16 49.84C1224.66 49.616 1224.23 49.3067 1223.85 48.912C1223.48 48.5067 1223.19 48.0373 1222.97 47.504C1222.77 46.9707 1222.67 46.3893 1222.67 45.76C1222.67 45.1307 1222.77 44.5493 1222.97 44.016C1223.19 43.4827 1223.48 43.0187 1223.85 42.624C1224.23 42.2187 1224.66 41.9093 1225.16 41.696C1225.68 41.472 1226.23 41.36 1226.83 41.36C1227.44 41.36 1227.99 41.472 1228.49 41.696C1229 41.9093 1229.44 42.2187 1229.8 42.624C1230.18 43.0187 1230.47 43.4827 1230.67 44.016C1230.88 44.5493 1230.99 45.1307 1230.99 45.76C1230.99 46.3893 1230.88 46.9707 1230.67 47.504C1230.47 48.0373 1230.18 48.5067 1229.8 48.912C1229.44 49.3067 1229 49.616 1228.49 49.84C1227.99 50.0533 1227.44 50.16 1226.83 50.16ZM1226.83 48.736C1227.3 48.736 1227.72 48.6187 1228.09 48.384C1228.48 48.1387 1228.77 47.792 1228.99 47.344C1229.21 46.896 1229.32 46.368 1229.32 45.76C1229.32 45.1413 1229.21 44.6133 1228.99 44.176C1228.77 43.728 1228.48 43.3867 1228.09 43.152C1227.72 42.9173 1227.3 42.8 1226.83 42.8C1226.37 42.8 1225.95 42.9173 1225.56 43.152C1225.19 43.3867 1224.89 43.728 1224.67 44.176C1224.45 44.6133 1224.35 45.1413 1224.35 45.76C1224.35 46.368 1224.45 46.896 1224.67 47.344C1224.89 47.792 1225.19 48.1387 1225.56 48.384C1225.95 48.6187 1226.37 48.736 1226.83 48.736ZM1236.19 50.16C1235.59 50.16 1235.04 50.0533 1234.52 49.84C1234.02 49.616 1233.58 49.3067 1233.21 48.912C1232.84 48.5067 1232.54 48.0373 1232.33 47.504C1232.13 46.9707 1232.03 46.3893 1232.03 45.76C1232.03 45.1307 1232.13 44.5493 1232.33 44.016C1232.54 43.4827 1232.84 43.0187 1233.21 42.624C1233.58 42.2187 1234.02 41.9093 1234.52 41.696C1235.04 41.472 1235.59 41.36 1236.19 41.36C1236.8 41.36 1237.35 41.472 1237.85 41.696C1238.36 41.9093 1238.8 42.2187 1239.16 42.624C1239.54 43.0187 1239.82 43.4827 1240.03 44.016C1240.24 44.5493 1240.35 45.1307 1240.35 45.76C1240.35 46.3893 1240.24 46.9707 1240.03 47.504C1239.82 48.0373 1239.54 48.5067 1239.16 48.912C1238.8 49.3067 1238.36 49.616 1237.85 49.84C1237.35 50.0533 1236.8 50.16 1236.19 50.16ZM1236.19 48.736C1236.66 48.736 1237.08 48.6187 1237.45 48.384C1237.84 48.1387 1238.13 47.792 1238.35 47.344C1238.57 46.896 1238.68 46.368 1238.68 45.76C1238.68 45.1413 1238.57 44.6133 1238.35 44.176C1238.13 43.728 1237.84 43.3867 1237.45 43.152C1237.08 42.9173 1236.66 42.8 1236.19 42.8C1235.73 42.8 1235.31 42.9173 1234.92 43.152C1234.55 43.3867 1234.25 43.728 1234.03 44.176C1233.81 44.6133 1233.71 45.1413 1233.71 45.76C1233.71 46.368 1233.81 46.896 1234.03 47.344C1234.25 47.792 1234.55 48.1387 1234.92 48.384C1235.31 48.6187 1235.73 48.736 1236.19 48.736ZM1243.61 50H1242V38.512H1243.61V45.312L1247.24 41.52H1249.15L1245.23 45.632L1249.52 50H1247.44L1243.61 45.984V50ZM1255.88 45.728H1261.23L1261.71 47.152H1255.29L1255.88 45.728ZM1262.03 50L1258.52 40.432L1254.97 50H1253.2L1257.6 38.512H1259.53L1263.9 50H1262.03ZM1273.83 50.24C1273.03 50.24 1272.29 50.0907 1271.59 49.792C1270.91 49.4827 1270.31 49.056 1269.79 48.512C1269.27 47.968 1268.87 47.3333 1268.59 46.608C1268.3 45.872 1268.15 45.0827 1268.15 44.24C1268.15 43.3973 1268.3 42.6133 1268.59 41.888C1268.87 41.1627 1269.27 40.5333 1269.79 40C1270.31 39.456 1270.91 39.0347 1271.59 38.736C1272.29 38.4267 1273.03 38.272 1273.83 38.272C1274.79 38.272 1275.67 38.4693 1276.46 38.864C1277.26 39.2587 1277.92 39.8133 1278.44 40.528C1278.98 41.2427 1279.31 42.0747 1279.45 43.024H1277.58C1277.47 42.4053 1277.24 41.856 1276.89 41.376C1276.54 40.896 1276.1 40.5227 1275.58 40.256C1275.07 39.9893 1274.49 39.856 1273.85 39.856C1273.28 39.856 1272.76 39.9627 1272.28 40.176C1271.81 40.3893 1271.4 40.6933 1271.05 41.088C1270.71 41.4827 1270.44 41.9467 1270.25 42.48C1270.07 43.0133 1269.98 43.6 1269.98 44.24C1269.98 44.88 1270.07 45.472 1270.25 46.016C1270.44 46.5493 1270.71 47.0133 1271.05 47.408C1271.4 47.8027 1271.81 48.112 1272.28 48.336C1272.76 48.5493 1273.28 48.656 1273.85 48.656C1274.49 48.656 1275.07 48.5227 1275.59 48.256C1276.12 47.9787 1276.55 47.6 1276.89 47.12C1277.24 46.64 1277.47 46.0907 1277.58 45.472H1279.45C1279.31 46.4213 1278.98 47.2533 1278.44 47.968C1277.92 48.6827 1277.26 49.2427 1276.46 49.648C1275.67 50.0427 1274.79 50.24 1273.83 50.24ZM1286.29 50V48.688C1286.02 49.1573 1285.66 49.52 1285.2 49.776C1284.74 50.032 1284.2 50.16 1283.57 50.16C1282.69 50.16 1281.99 49.9307 1281.46 49.472C1280.92 49.0027 1280.66 48.3787 1280.66 47.6C1280.66 46.768 1280.98 46.1387 1281.63 45.712C1282.29 45.2853 1283.25 45.072 1284.51 45.072C1284.76 45.072 1285 45.0773 1285.23 45.088C1285.47 45.0987 1285.75 45.1253 1286.1 45.168V44.544C1286.1 43.9467 1285.94 43.4827 1285.63 43.152C1285.32 42.8107 1284.88 42.64 1284.32 42.64C1283.73 42.64 1283.26 42.8107 1282.91 43.152C1282.57 43.4827 1282.39 43.9413 1282.37 44.528H1280.9C1280.92 43.888 1281.07 43.3333 1281.36 42.864C1281.66 42.384 1282.06 42.016 1282.56 41.76C1283.07 41.4933 1283.66 41.36 1284.32 41.36C1285.36 41.36 1286.18 41.6427 1286.75 42.208C1287.34 42.7627 1287.63 43.5467 1287.63 44.56V50H1286.29ZM1282.19 47.552C1282.19 47.9893 1282.35 48.3413 1282.66 48.608C1282.96 48.8747 1283.38 49.008 1283.89 49.008C1284.57 49.008 1285.11 48.816 1285.5 48.432C1285.9 48.0373 1286.1 47.5147 1286.1 46.864V46.176C1285.79 46.144 1285.51 46.1227 1285.28 46.112C1285.04 46.0907 1284.82 46.08 1284.61 46.08C1283.8 46.08 1283.19 46.2027 1282.78 46.448C1282.39 46.6827 1282.19 47.0507 1282.19 47.552ZM1291.42 50H1289.79V38.512H1291.42V50ZM1295.3 50H1293.67V38.512H1295.3V50Z" fill="white"/>
</svg>
